<svg width="96" height="29" viewBox="0 0 96 29" fill="none" xmlns="http://www.w3.org/2000/svg">
<g clip-path="url(#clip0_4373_1554)">
<rect y="0.929199" width="28" height="28" rx="6.37934" fill="#EF8421"/>
<path d="M8.05193 9.22086C8.3442 8.95991 8.7223 8.81567 9.11412 8.81567H18.3406C19.2214 8.81567 19.9354 9.52971 19.9354 10.4105V19.9271C19.9354 20.4583 19.6709 20.9546 19.23 21.2509L4.05944 31.4436C3.40609 31.8826 2.53019 31.7792 1.99694 31.2003L-5.28209 23.2973C-5.88535 22.6424 -5.83542 21.6203 -5.1712 21.0272L8.05193 9.22086Z" fill="black" fill-opacity="0.2"/>
<rect x="7.44263" y="8.5498" width="12.7587" height="12.7587" rx="2.12645" fill="url(#paint0_linear_4373_1554)"/>
</g>
<path d="M35 22.1292V7.7292H41.2737C41.4182 7.7292 41.6108 7.73587 41.8515 7.7492C42.0992 7.75587 42.3193 7.77587 42.5119 7.8092C43.3993 7.94253 44.1251 8.22587 44.6892 8.6592C45.2601 9.09253 45.6797 9.6392 45.948 10.2992C46.2163 10.9525 46.3505 11.6825 46.3505 12.4892C46.3505 13.2959 46.2129 14.0292 45.9377 14.6892C45.6694 15.3425 45.2498 15.8859 44.6788 16.3192C44.1148 16.7525 43.3925 17.0359 42.5119 17.1692C42.3193 17.1959 42.0992 17.2159 41.8515 17.2292C41.6039 17.2425 41.4113 17.2492 41.2737 17.2492H37.8067V22.1292H35ZM37.8067 14.7092H41.1499C41.2943 14.7092 41.4526 14.7025 41.6245 14.6892C41.7965 14.6759 41.9547 14.6492 42.0992 14.6092C42.4775 14.5092 42.7699 14.3425 42.9763 14.1092C43.1826 13.8692 43.3237 13.6059 43.3993 13.3192C43.4819 13.0259 43.5232 12.7492 43.5232 12.4892C43.5232 12.2292 43.4819 11.9559 43.3993 11.6692C43.3237 11.3759 43.1826 11.1125 42.9763 10.8792C42.7699 10.6392 42.4775 10.4692 42.0992 10.3692C41.9547 10.3292 41.7965 10.3025 41.6245 10.2892C41.4526 10.2759 41.2943 10.2692 41.1499 10.2692H37.8067V14.7092Z" fill="white"/>
<path d="M52.41 22.4292C51.2888 22.4292 50.3051 22.1859 49.4589 21.6992C48.6128 21.2125 47.9524 20.5425 47.4778 19.6892C47.01 18.8292 46.7761 17.8425 46.7761 16.7292C46.7761 15.6025 47.0169 14.6125 47.4984 13.7592C47.9799 12.8992 48.6438 12.2292 49.4899 11.7492C50.336 11.2692 51.3094 11.0292 52.41 11.0292C53.5313 11.0292 54.515 11.2725 55.3612 11.7592C56.2142 12.2459 56.878 12.9192 57.3527 13.7792C57.8273 14.6325 58.0646 15.6159 58.0646 16.7292C58.0646 17.8492 57.8239 18.8392 57.3423 19.6992C56.8677 20.5525 56.2039 21.2225 55.3509 21.7092C54.5047 22.1892 53.5245 22.4292 52.41 22.4292ZM52.41 19.8892C53.3112 19.8892 53.9819 19.5959 54.4222 19.0092C54.8693 18.4159 55.0929 17.6559 55.0929 16.7292C55.0929 15.7692 54.8659 15.0025 54.4119 14.4292C53.9647 13.8559 53.2974 13.5692 52.41 13.5692C51.7978 13.5692 51.2956 13.7025 50.9035 13.9692C50.5114 14.2359 50.2191 14.6059 50.0265 15.0792C49.8407 15.5525 49.7479 16.1025 49.7479 16.7292C49.7479 17.6959 49.9714 18.4659 50.4186 19.0392C50.8726 19.6059 51.5364 19.8892 52.41 19.8892Z" fill="white"/>
<path d="M63.5604 22.4292C62.1571 22.4292 61.022 22.1225 60.1553 21.5092C59.2954 20.8892 58.7726 20.0159 58.5869 18.8892L61.4554 18.4692C61.5724 18.9759 61.8303 19.3725 62.2293 19.6592C62.6352 19.9459 63.1477 20.0892 63.7668 20.0892C64.2758 20.0892 64.6679 19.9959 64.9431 19.8092C65.2183 19.6159 65.3559 19.3492 65.3559 19.0092C65.3559 18.7959 65.3008 18.6259 65.1908 18.4992C65.0807 18.3659 64.833 18.2359 64.4478 18.1092C64.0695 17.9825 63.4779 17.8159 62.673 17.6092C61.765 17.3825 61.0392 17.1292 60.4958 16.8492C59.9524 16.5692 59.5602 16.2359 59.3195 15.8492C59.0787 15.4559 58.9583 14.9825 58.9583 14.4292C58.9583 13.7359 59.1406 13.1359 59.5052 12.6292C59.8698 12.1159 60.3823 11.7225 61.0427 11.4492C61.71 11.1692 62.4942 11.0292 63.3953 11.0292C64.269 11.0292 65.0429 11.1592 65.717 11.4192C66.3912 11.6792 66.9346 12.0492 67.3473 12.5292C67.767 13.0092 68.0249 13.5759 68.1212 14.2292L65.2527 14.7292C65.2045 14.3292 65.0257 14.0125 64.7161 13.7792C64.4065 13.5459 63.9869 13.4092 63.4572 13.3692C62.9413 13.3359 62.5251 13.4025 62.2087 13.5692C61.8991 13.7359 61.7444 13.9759 61.7444 14.2892C61.7444 14.4759 61.8097 14.6325 61.9404 14.7592C62.078 14.8859 62.3566 15.0159 62.7762 15.1492C63.2027 15.2825 63.8493 15.4559 64.7161 15.6692C65.5622 15.8825 66.2398 16.1325 66.7489 16.4192C67.2648 16.6992 67.6397 17.0392 67.8736 17.4392C68.1075 17.8325 68.2244 18.3092 68.2244 18.8692C68.2244 19.9759 67.8117 20.8459 66.9862 21.4792C66.1607 22.1125 65.0188 22.4292 63.5604 22.4292Z" fill="white"/>
<path d="M69.8728 9.8292V7.4292H72.6795V9.8292H69.8728ZM69.8728 22.1292V11.3292H72.6795V22.1292H69.8728Z" fill="white"/>
<path d="M77.9605 22.1292L73.9156 11.3292H76.7223L79.3638 18.8092L82.0054 11.3292H84.8121L80.7672 22.1292H77.9605Z" fill="white"/>
<path d="M90.6282 22.4292C89.4863 22.4292 88.4785 22.1925 87.6048 21.7192C86.7381 21.2392 86.0571 20.5825 85.5618 19.7492C85.0734 18.9092 84.8291 17.9492 84.8291 16.8692C84.8291 15.6892 85.0699 14.6625 85.5514 13.7892C86.033 12.9159 86.6968 12.2392 87.5429 11.7592C88.3891 11.2725 89.3624 11.0292 90.4631 11.0292C91.6325 11.0292 92.6266 11.2959 93.4452 11.8292C94.2638 12.3625 94.8691 13.1125 95.2612 14.0792C95.6534 15.0459 95.7909 16.1825 95.674 17.4892H92.8983V16.4892C92.8983 15.3892 92.716 14.5992 92.3514 14.1192C91.9937 13.6325 91.4055 13.3892 90.5869 13.3892C89.6307 13.3892 88.9256 13.6725 88.4716 14.2392C88.0245 14.7992 87.8009 15.6292 87.8009 16.7292C87.8009 17.7359 88.0245 18.5159 88.4716 19.0692C88.9256 19.6159 89.5895 19.8892 90.4631 19.8892C91.0134 19.8892 91.4846 19.7725 91.8767 19.5392C92.2688 19.3059 92.5681 18.9692 92.7745 18.5292L95.5811 19.3092C95.1615 20.2959 94.4977 21.0625 93.5896 21.6092C92.6885 22.1559 91.7013 22.4292 90.6282 22.4292ZM86.9341 17.4892V15.4692H94.3223V17.4892H86.9341Z" fill="white"/>
<defs>
<linearGradient id="paint0_linear_4373_1554" x1="13.822" y1="8.5498" x2="13.822" y2="21.3085" gradientUnits="userSpaceOnUse">
<stop stop-color="white"/>
<stop offset="1" stop-color="#CFCFCF"/>
</linearGradient>
<clipPath id="clip0_4373_1554">
<rect y="0.929199" width="28" height="28" rx="6.37934" fill="white"/>
</clipPath>
</defs>
</svg>
